<svg width="756" height="126" viewBox="0 0 756 126" fill="none" xmlns="http://www.w3.org/2000/svg">
<g clip-path="url(#clip0_572_3854)">
<path d="M41.9955 0V83.9911C65.1931 83.9911 83.9911 65.1931 83.9911 41.9956C83.9911 18.798 65.1931 0 41.9955 0Z" fill="#1764FF"/>
<path d="M20.9978 125.987C32.5945 125.987 41.9956 116.586 41.9956 104.989C41.9956 93.3921 32.5945 83.9911 20.9978 83.9911C9.40103 83.9911 0 93.3921 0 104.989C0 116.586 9.40103 125.987 20.9978 125.987Z" fill="#7BBDFF"/>
<path d="M125.573 12.252H162.449C184.474 12.252 199.832 25.5706 199.832 48.1016C199.832 70.6325 184.474 83.7778 162.449 83.7778H145.038V124.094H125.573V12.252ZM162.103 30.8634H145.025V65.1797H162.103C172.182 65.1797 179.688 59.7137 179.688 48.1016C179.688 36.4895 172.182 30.8634 162.103 30.8634Z" fill="black"/>
<path d="M246.721 38.4092C271.305 38.4092 290.423 57.3539 290.423 82.1113C290.423 106.869 271.305 125.987 246.721 125.987C222.136 125.987 203.018 106.695 203.018 82.1113C203.018 57.5272 221.963 38.4092 246.721 38.4092ZM246.721 107.549C260.892 107.549 271.305 96.1098 271.305 82.1113C271.305 68.1128 260.892 56.674 246.721 56.674C232.549 56.674 221.963 68.1128 221.963 82.1113C221.963 96.1098 232.722 107.549 246.721 107.549Z" fill="black"/>
<path d="M318.753 108.055H360.895V124.107H296.222V108.908L337.871 56.1541H298.102V40.1024H360.895V55.3008L318.753 108.055Z" fill="black"/>
<path d="M435.781 124.107V110.282C429.808 120.014 419.902 125.987 407.61 125.987C384.053 125.987 367.494 106.695 367.494 82.1113C367.494 57.5272 384.053 38.4092 407.61 38.4092C419.902 38.4092 429.808 44.3819 435.781 53.9409V40.1157H454.565V124.107H435.781ZM411.196 56.674C397.198 56.674 386.612 68.1128 386.612 82.1113C386.612 96.1098 397.198 107.549 411.196 107.549C425.195 107.549 435.781 96.1098 435.781 82.1113C435.781 68.1128 425.368 56.674 411.196 56.674Z" fill="black"/>
<path d="M490.748 124.107H471.963V10.5455H490.748V124.107Z" fill="black"/>
<path d="M570.993 124.107V110.282C565.02 120.014 555.115 125.987 542.823 125.987C519.265 125.987 502.707 106.695 502.707 82.1113C502.707 57.5272 519.265 38.4092 542.823 38.4092C555.115 38.4092 565.02 44.3819 570.993 53.9409V40.1157H589.778V124.107H570.993ZM546.409 56.674C532.41 56.674 521.825 68.1128 521.825 82.1113C521.825 96.1098 532.41 107.549 546.409 107.549C560.407 107.549 570.993 96.1098 570.993 82.1113C570.993 68.1128 560.581 56.674 546.409 56.674Z" fill="black"/>
<path d="M625.787 124.107H607.002V10.5455H625.787V53.7676C631.586 44.382 641.839 38.3959 654.464 38.3959C678.368 38.3959 695.26 57.3406 695.26 82.098C695.26 106.855 678.355 125.973 654.624 125.973C641.825 125.973 631.573 119.827 625.774 110.442V124.094H625.787V124.107ZM650.878 107.549C665.223 107.549 675.808 95.9365 675.808 82.1113C675.808 68.2861 665.223 56.8473 650.878 56.8473C636.533 56.8473 625.787 68.1128 625.787 82.1113C625.787 96.1098 636.373 107.549 650.878 107.549Z" fill="black"/>
<path d="M751.987 58.2472C745.961 56.3674 739.522 54.7942 733.042 54.7942C725.87 54.7942 722.11 58.3805 722.11 62.9933C722.11 66.5796 724.323 68.4594 728.43 71.0192L741.921 79.045C752.334 85.3643 755.92 93.0435 755.92 101.243C755.92 115.748 744.828 126 725.87 126C717.844 126 709.658 123.787 704.019 121.214V104.736C706.805 105.869 717.164 109.775 724.843 109.775C732.522 109.775 736.455 106.015 736.455 101.069C736.455 97.6563 734.576 94.9233 729.283 91.857L714.938 83.3245C706.232 78.2051 702.819 70.6859 702.819 62.5001C702.819 48.5015 713.404 38.4226 732.522 38.4226C739.522 38.4226 746.694 39.9558 751.987 41.8356V58.2605V58.2472Z" fill="black"/>
</g>
<defs>
<clipPath id="clip0_572_3854">
<rect width="755.92" height="126" fill="white"/>
</clipPath>
</defs>
</svg>
