<svg id="레이어_1" data-name="레이어 1" xmlns="http://www.w3.org/2000/svg" viewBox="0 0 854.03 184.68"><defs><style>.cls-1{fill:#fff;}</style></defs><title>pozalabs logo</title><path class="cls-1" d="M740.61,21.74A36.2,36.2,0,0,0,721.34,2.56a36.38,36.38,0,0,0-26.74,0A35.11,35.11,0,0,0,683.37,10a35.76,35.76,0,0,0-8,11.69,34.89,34.89,0,0,0-2.8,13.78c0,10.11,3.39,18.74,10.08,25.67A33.74,33.74,0,0,0,707.8,71.73,34.72,34.72,0,0,0,734.15,60,34.48,34.48,0,0,0,741,48.8a38,38,0,0,0,2.26-13.29A35.78,35.78,0,0,0,740.61,21.74ZM719.33,48a14.44,14.44,0,0,1-11.15,4.86A15,15,0,0,1,696.67,48a17.09,17.09,0,0,1-4.75-12.43,16.65,16.65,0,0,1,1.64-7.1,17.21,17.21,0,0,1,4.53-6,14.64,14.64,0,0,1,4.59-2.71,14.45,14.45,0,0,1,5.12-.9,15.17,15.17,0,0,1,11.44,4.85,16,16,0,0,1,4.81,11.66A17.45,17.45,0,0,1,719.33,48Z"/><polygon class="cls-1" points="468.54 183.42 468.54 156.65 395.51 156.65 380.57 183.42 468.54 183.42"/><polygon class="cls-1" points="439.49 25.26 421.6 52.06 344.3 183.42 380.57 183.42 395.51 156.65 472.57 25.26 439.49 25.26"/><polygon class="cls-1" points="356.39 25.26 356.39 52.06 421.6 52.06 439.49 25.26 356.39 25.26"/><polygon class="cls-1" points="31.43 53.34 31.43 25.81 0.56 25.81 0.56 183.93 31.43 183.93 31.43 124.41 31.43 96.65 31.43 53.34"/><path class="cls-1" d="M114,75.11c0-26.88-19.53-49.3-52.19-49.3H31.43V53.34H60.31c14,0,22.87,8.89,22.87,21.77S74.29,96.65,60.31,96.65H31.43v27.76H61.85C94.51,124.41,114,102,114,75.11Z"/><polygon class="cls-1" points="575.4 25.75 508.31 183.87 540.37 183.87 554.5 151.13 564.02 126.76 586.57 71.02 586.57 25.75 575.4 25.75"/><polygon class="cls-1" points="598.17 25.75 586.57 25.75 586.57 71.02 608.98 128.34 640.5 128.34 598.17 25.75"/><polygon class="cls-1" points="663.41 154.57 663.41 128.34 640.5 128.34 608.98 128.34 585.85 128.34 585.85 154.57 619.06 154.57 651.32 154.57 663.41 154.57"/><polygon class="cls-1" points="619.06 154.57 630.89 183.87 663.41 183.87 651.32 154.57 619.06 154.57"/><path class="cls-1" d="M179.89,111.92c-4.2-27.51,13.87-54.53,41.82-58.8a49.47,49.47,0,0,1,38.61,10.41l15.11-24.77a81.26,81.26,0,0,0-57.34-12.33C173.81,33.2,143.15,72.22,150,117c4.13,27.05,20.64,47.79,42.81,58.42,4.72-7.91,9.64-16.12,14.65-24.47A53.33,53.33,0,0,1,179.89,111.92Z"/><path class="cls-1" d="M309.43,92.35c-.1-.66-.25-1.33-.36-2l-53.9,88.74C291.53,167.25,315.5,132.08,309.43,92.35Z"/><path class="cls-1" d="M275.43,38.76,260.32,63.53a52.61,52.61,0,0,1,19.09,33.19c4.24,27.73-13.56,54.93-42,59.27a48.14,48.14,0,0,1-30-5.06c-5,8.35-9.93,16.56-14.65,24.47a83,83,0,0,0,48.66,7,87.62,87.62,0,0,0,13.71-3.31l53.9-88.74A77.77,77.77,0,0,0,275.43,38.76Z"/><path class="cls-1" d="M715.06,183.36a14.27,14.27,0,0,1-5.78-1.07,11.22,11.22,0,0,1-4-2.84A11.1,11.1,0,0,1,703,175.5a15,15,0,0,1-.71-4.54V124.08h10.9v46.21a4.24,4.24,0,0,0,.88,2.91,3.74,3.74,0,0,0,2.95,1h4.17v9.16Z"/><path class="cls-1" d="M751.92,183.36v-3.75a13.85,13.85,0,0,1-4.54,3.16,15.5,15.5,0,0,1-6.07,1c-4.83,0-8.49-1.29-11-3.83a13.08,13.08,0,0,1-2.67-4.34,15.81,15.81,0,0,1-.9-5.4,13.3,13.3,0,0,1,.9-4.88,11.19,11.19,0,0,1,2.76-4,12.61,12.61,0,0,1,4.61-2.7,19,19,0,0,1,6.5-1h10.2v-2.16c0-2.37-.61-4.11-1.87-5.19s-3.31-1.63-6.19-1.63a17.83,17.83,0,0,0-2.75.2,10.08,10.08,0,0,0-2.13.63,7.27,7.27,0,0,0-1.79,1.09,10.28,10.28,0,0,0-1.65,1.65l-6.92-6.73a16.34,16.34,0,0,1,6.71-4.74,26.84,26.84,0,0,1,8.94-1.26q9.18,0,13.85,3.84t4.72,11.48v28.55Zm-.25-18.3h-8.51a6.85,6.85,0,0,0-4.48,1.28A4.43,4.43,0,0,0,737.1,170a4.59,4.59,0,0,0,1.53,3.62A6.84,6.84,0,0,0,743.3,175a17.42,17.42,0,0,0,3.83-.35,6,6,0,0,0,3-1.72c1-1,1.58-2.83,1.58-5.51Z"/><path class="cls-1" d="M810.44,166.63a38.15,38.15,0,0,1-.49,5,21.13,21.13,0,0,1-1.34,4.57,11.81,11.81,0,0,1-2.49,3.76,12.88,12.88,0,0,1-4.6,2.87,17.08,17.08,0,0,1-5.93,1,15.93,15.93,0,0,1-6-1,13.26,13.26,0,0,1-4.78-3.55v4.08H774.23V124.08h10.9v19.75a12,12,0,0,1,4.66-3.38,15.53,15.53,0,0,1,5.8-1,16.62,16.62,0,0,1,5.93,1,11.53,11.53,0,0,1,7.09,6.67,19.78,19.78,0,0,1,1.34,4.54,37.57,37.57,0,0,1,.49,4.94c0,1.69.08,3.35.08,5S810.49,164.91,810.44,166.63Zm-11.06-9.9a13.09,13.09,0,0,0-1-3.91,6.13,6.13,0,0,0-2.2-2.64,8.21,8.21,0,0,0-7.63,0,6,6,0,0,0-2.18,2.64,12.79,12.79,0,0,0-1,3.91,43.62,43.62,0,0,0-.26,4.91,44.63,44.63,0,0,0,.26,5,12.76,12.76,0,0,0,1,3.95,5.85,5.85,0,0,0,2.18,2.62,8,8,0,0,0,7.63,0,6,6,0,0,0,2.2-2.62,13,13,0,0,0,1-3.95,47.19,47.19,0,0,0,.26-5A46.11,46.11,0,0,0,799.38,156.73Z"/><path class="cls-1" d="M852.07,176a12.64,12.64,0,0,1-3.92,4.43,18.4,18.4,0,0,1-5.87,2.61,28.69,28.69,0,0,1-7.2.88c-1.7,0-3.38-.07-5-.21a25.5,25.5,0,0,1-4.75-.89,21,21,0,0,1-4.49-1.86,19.52,19.52,0,0,1-4.24-3.29l7.08-7.08a11.66,11.66,0,0,0,5.86,3.37,26.82,26.82,0,0,0,5.7.7,16.33,16.33,0,0,0,2.79-.23,9.73,9.73,0,0,0,2.46-.8,5.27,5.27,0,0,0,1.75-1.36,3.35,3.35,0,0,0,.67-2.09,3.81,3.81,0,0,0-1-2.71,5.65,5.65,0,0,0-3.58-1.28l-6.82-.67a17,17,0,0,1-9.29-3.37c-2.23-1.87-3.38-4.79-3.38-8.79a12.46,12.46,0,0,1,1.39-5.91,13,13,0,0,1,3.66-4.32,16.34,16.34,0,0,1,5.32-2.68,21.74,21.74,0,0,1,6.36-.91,37.3,37.3,0,0,1,9.26,1.08,17.14,17.14,0,0,1,7.32,4l-6.65,6.75a10.46,10.46,0,0,0-4.59-2.28,23.26,23.26,0,0,0-5.5-.64c-2.16,0-3.74.41-4.7,1.24a3.78,3.78,0,0,0-1.45,2.93,4.8,4.8,0,0,0,.16,1.21,2.43,2.43,0,0,0,.67,1.11,4.43,4.43,0,0,0,1.37.92,6.2,6.2,0,0,0,2.3.48l6.82.68q6.48.66,9.7,4a12.06,12.06,0,0,1,3.19,8.77A13.12,13.12,0,0,1,852.07,176Z"/></svg>